<svg width="24" height="25" viewBox="0 0 24 25" fill="none" xmlns="http://www.w3.org/2000/svg">
<rect y="0.5" width="24" height="24" rx="12" fill="#E8E8E8" fill-opacity="0.7"/>
<path d="M15.8228 8.68326C15.7667 8.62701 15.7 8.58238 15.6266 8.55193C15.5532 8.52148 15.4745 8.50581 15.395 8.50581C15.3155 8.50581 15.2369 8.52148 15.1634 8.55193C15.09 8.58238 15.0234 8.62701 14.9672 8.68326L12 11.6444L9.03278 8.6772C8.9766 8.62102 8.90991 8.57646 8.8365 8.54605C8.7631 8.51565 8.68443 8.5 8.60499 8.5C8.52554 8.5 8.44687 8.51565 8.37347 8.54605C8.30007 8.57646 8.23337 8.62102 8.1772 8.6772C8.12102 8.73337 8.07646 8.80007 8.04605 8.87347C8.01565 8.94687 8 9.02554 8 9.10499C8 9.18443 8.01565 9.2631 8.04605 9.3365C8.07646 9.40991 8.12102 9.4766 8.1772 9.53278L11.1444 12.5L8.1772 15.4672C8.12102 15.5234 8.07646 15.5901 8.04605 15.6635C8.01565 15.7369 8 15.8156 8 15.895C8 15.9745 8.01565 16.0531 8.04605 16.1265C8.07646 16.1999 8.12102 16.2666 8.1772 16.3228C8.23337 16.379 8.30007 16.4235 8.37347 16.4539C8.44687 16.4844 8.52554 16.5 8.60499 16.5C8.68443 16.5 8.7631 16.4844 8.8365 16.4539C8.90991 16.4235 8.9766 16.379 9.03278 16.3228L12 13.3556L14.9672 16.3228C15.0234 16.379 15.0901 16.4235 15.1635 16.4539C15.2369 16.4844 15.3156 16.5 15.395 16.5C15.4745 16.5 15.5531 16.4844 15.6265 16.4539C15.6999 16.4235 15.7666 16.379 15.8228 16.3228C15.879 16.2666 15.9235 16.1999 15.9539 16.1265C15.9844 16.0531 16 15.9745 16 15.895C16 15.8156 15.9844 15.7369 15.9539 15.6635C15.9235 15.5901 15.879 15.5234 15.8228 15.4672L12.8556 12.5L15.8228 9.53278C16.0534 9.30219 16.0534 8.91385 15.8228 8.68326Z" fill="#919191"/>
</svg>
