<svg width="21" height="26" viewBox="0 0 21 26" fill="none" xmlns="http://www.w3.org/2000/svg">
<path d="M6.33333 15.6667L14.3333 7.66667M7 8.33333H7.01333M13.6667 15H13.68M19.6667 25V3.66667C19.6667 2.95942 19.3857 2.28115 18.8856 1.78105C18.3855 1.28095 17.7072 1 17 1H3.66667C2.95942 1 2.28115 1.28095 1.78105 1.78105C1.28095 2.28115 1 2.95942 1 3.66667V25L5.66667 22.3333L10.3333 25L15 22.3333L19.6667 25ZM7.66667 8.33333C7.66667 8.51014 7.59643 8.67971 7.47141 8.80474C7.34638 8.92976 7.17681 9 7 9C6.82319 9 6.65362 8.92976 6.5286 8.80474C6.40357 8.67971 6.33333 8.51014 6.33333 8.33333C6.33333 8.15652 6.40357 7.98695 6.5286 7.86193C6.65362 7.7369 6.82319 7.66667 7 7.66667C7.17681 7.66667 7.34638 7.7369 7.47141 7.86193C7.59643 7.98695 7.66667 8.15652 7.66667 8.33333ZM14.3333 15C14.3333 15.1768 14.2631 15.3464 14.1381 15.4714C14.013 15.5964 13.8435 15.6667 13.6667 15.6667C13.4899 15.6667 13.3203 15.5964 13.1953 15.4714C13.0702 15.3464 13 15.1768 13 15C13 14.8232 13.0702 14.6536 13.1953 14.5286C13.3203 14.4036 13.4899 14.3333 13.6667 14.3333C13.8435 14.3333 14.013 14.4036 14.1381 14.5286C14.2631 14.6536 14.3333 14.8232 14.3333 15Z" stroke="#27386D" stroke-width="2" stroke-linecap="round" stroke-linejoin="round"/>
</svg>
