<svg width="18" height="18" viewBox="0 0 18 18" fill="none" xmlns="http://www.w3.org/2000/svg">
<path d="M10.5626 14.8418C10.0475 14.9392 9.52436 14.988 9.00011 14.9876C5.26844 14.9876 2.11011 12.5351 1.04761 9.1543C1.33366 8.24438 1.77427 7.39052 2.35011 6.63013M7.23177 7.3868C7.70065 6.91792 8.33659 6.6545 8.99969 6.6545C9.66279 6.6545 10.2987 6.91792 10.7676 7.3868C11.2365 7.85568 11.4999 8.49162 11.4999 9.15471C11.4999 9.81781 11.2365 10.4537 10.7676 10.9226M7.23177 7.3868L10.7676 10.9226M7.23177 7.3868L10.7668 10.921M10.7676 10.9226L13.5101 13.6643M7.23344 7.38763L4.49177 4.64596M4.49177 4.64596L1.50011 1.6543M4.49177 4.64596C5.8354 3.77894 7.40102 3.3188 9.00011 3.32096C12.7318 3.32096 15.8901 5.77346 16.9526 9.1543C16.366 11.013 15.1479 12.6081 13.5093 13.6635M4.49177 4.64596L13.5093 13.6635M13.5093 13.6635L16.5001 16.6543" stroke="#828282" stroke-width="2" stroke-linecap="round" stroke-linejoin="round"/>
</svg>
