<svg width="22" height="26" viewBox="0 0 22 26" fill="none" xmlns="http://www.w3.org/2000/svg">
<path d="M14.7712 10.1046C15.7714 9.10438 16.3333 7.74782 16.3333 6.33333C16.3333 4.91885 15.7714 3.56229 14.7712 2.5621C13.771 1.5619 12.4144 1 11 1C9.58547 1 8.22892 1.5619 7.22872 2.5621C6.22853 3.56229 5.66663 4.91885 5.66663 6.33333C5.66663 7.74782 6.22853 9.10438 7.22872 10.1046C8.22892 11.1048 9.58547 11.6667 11 11.6667C12.4144 11.6667 13.771 11.1048 14.7712 10.1046Z" stroke="#BABABA" stroke-width="2" stroke-linecap="round" stroke-linejoin="round"/>
<path d="M4.4003 18.4003C6.15064 16.65 8.52461 15.6667 11 15.6667C13.4753 15.6667 15.8493 16.65 17.5996 18.4003C19.35 20.1507 20.3333 22.5246 20.3333 25H1.66663C1.66663 22.5246 2.64996 20.1507 4.4003 18.4003Z" stroke="#BABABA" stroke-width="2" stroke-linecap="round" stroke-linejoin="round"/>
</svg>
