<svg width="56" height="48" viewBox="0 0 56 48" fill="none" xmlns="http://www.w3.org/2000/svg">
<g filter="url(#filter0_di_869_6425)">
<circle cx="28" cy="10" r="6" fill="#66C3D0"/>
</g>
<path d="M21.121 37.804C23.2194 36.6179 25.5896 35.9963 28 36C30.5 36 32.847 36.655 34.879 37.804M31 30C31 30.7956 30.6839 31.5587 30.1213 32.1213C29.5587 32.6839 28.7956 33 28 33C27.2044 33 26.4413 32.6839 25.8787 32.1213C25.3161 31.5587 25 30.7956 25 30C25 29.2044 25.3161 28.4413 25.8787 27.8787C26.4413 27.3161 27.2044 27 28 27C28.7956 27 29.5587 27.3161 30.1213 27.8787C30.6839 28.4413 31 29.2044 31 30ZM37 32C37 33.1819 36.7672 34.3522 36.3149 35.4442C35.8626 36.5361 35.1997 37.5282 34.364 38.364C33.5282 39.1997 32.5361 39.8626 31.4442 40.3149C30.3522 40.7672 29.1819 41 28 41C26.8181 41 25.6478 40.7672 24.5558 40.3149C23.4639 39.8626 22.4718 39.1997 21.636 38.364C20.8003 37.5282 20.1374 36.5361 19.6851 35.4442C19.2328 34.3522 19 33.1819 19 32C19 29.6131 19.9482 27.3239 21.636 25.636C23.3239 23.9482 25.6131 23 28 23C30.3869 23 32.6761 23.9482 34.364 25.636C36.0518 27.3239 37 29.6131 37 32Z" stroke="#FEFEFE" stroke-width="2" stroke-linecap="round" stroke-linejoin="round"/>
<defs>
<filter id="filter0_di_869_6425" x="18" y="4" width="20" height="20" filterUnits="userSpaceOnUse" color-interpolation-filters="sRGB">
<feFlood flood-opacity="0" result="BackgroundImageFix"/>
<feColorMatrix in="SourceAlpha" type="matrix" values="0 0 0 0 0 0 0 0 0 0 0 0 0 0 0 0 0 0 127 0" result="hardAlpha"/>
<feOffset dy="4"/>
<feGaussianBlur stdDeviation="2"/>
<feComposite in2="hardAlpha" operator="out"/>
<feColorMatrix type="matrix" values="0 0 0 0 0 0 0 0 0 0 0 0 0 0 0 0 0 0 0.25 0"/>
<feBlend mode="normal" in2="BackgroundImageFix" result="effect1_dropShadow_869_6425"/>
<feBlend mode="normal" in="SourceGraphic" in2="effect1_dropShadow_869_6425" result="shape"/>
<feColorMatrix in="SourceAlpha" type="matrix" values="0 0 0 0 0 0 0 0 0 0 0 0 0 0 0 0 0 0 127 0" result="hardAlpha"/>
<feOffset dy="4"/>
<feGaussianBlur stdDeviation="2"/>
<feComposite in2="hardAlpha" operator="arithmetic" k2="-1" k3="1"/>
<feColorMatrix type="matrix" values="0 0 0 0 0 0 0 0 0 0 0 0 0 0 0 0 0 0 0.25 0"/>
<feBlend mode="normal" in2="shape" result="effect2_innerShadow_869_6425"/>
</filter>
</defs>
</svg>
