<svg width="56" height="48" viewBox="0 0 56 48" fill="none" xmlns="http://www.w3.org/2000/svg">
<g filter="url(#filter0_di_869_5490)">
<circle cx="28" cy="10" r="6" fill="#66C3D0"/>
</g>
<path d="M19 32L21 30M21 30L28 23L35 30M21 30V40C21 40.2652 21.1054 40.5196 21.2929 40.7071C21.4804 40.8946 21.7348 41 22 41H25M35 30L37 32M35 30V40C35 40.2652 34.8946 40.5196 34.7071 40.7071C34.5196 40.8946 34.2652 41 34 41H31M25 41C25.2652 41 25.5196 40.8946 25.7071 40.7071C25.8946 40.5196 26 40.2652 26 40V36C26 35.7348 26.1054 35.4804 26.2929 35.2929C26.4804 35.1054 26.7348 35 27 35H29C29.2652 35 29.5196 35.1054 29.7071 35.2929C29.8946 35.4804 30 35.7348 30 36V40C30 40.2652 30.1054 40.5196 30.2929 40.7071C30.4804 40.8946 30.7348 41 31 41M25 41H31" stroke="#FEFEFE" stroke-width="2" stroke-linecap="round" stroke-linejoin="round"/>
<defs>
<filter id="filter0_di_869_5490" x="18" y="4" width="20" height="20" filterUnits="userSpaceOnUse" color-interpolation-filters="sRGB">
<feFlood flood-opacity="0" result="BackgroundImageFix"/>
<feColorMatrix in="SourceAlpha" type="matrix" values="0 0 0 0 0 0 0 0 0 0 0 0 0 0 0 0 0 0 127 0" result="hardAlpha"/>
<feOffset dy="4"/>
<feGaussianBlur stdDeviation="2"/>
<feComposite in2="hardAlpha" operator="out"/>
<feColorMatrix type="matrix" values="0 0 0 0 0 0 0 0 0 0 0 0 0 0 0 0 0 0 0.25 0"/>
<feBlend mode="normal" in2="BackgroundImageFix" result="effect1_dropShadow_869_5490"/>
<feBlend mode="normal" in="SourceGraphic" in2="effect1_dropShadow_869_5490" result="shape"/>
<feColorMatrix in="SourceAlpha" type="matrix" values="0 0 0 0 0 0 0 0 0 0 0 0 0 0 0 0 0 0 127 0" result="hardAlpha"/>
<feOffset dy="4"/>
<feGaussianBlur stdDeviation="2"/>
<feComposite in2="hardAlpha" operator="arithmetic" k2="-1" k3="1"/>
<feColorMatrix type="matrix" values="0 0 0 0 0 0 0 0 0 0 0 0 0 0 0 0 0 0 0.25 0"/>
<feBlend mode="normal" in2="shape" result="effect2_innerShadow_869_5490"/>
</filter>
</defs>
</svg>
