<svg width="21" height="20" viewBox="0 0 21 20" fill="none" xmlns="http://www.w3.org/2000/svg">
<path fill-rule="evenodd" clip-rule="evenodd" d="M10.5 19.6004C13.0461 19.6004 15.4879 18.589 17.2882 16.7886C19.0886 14.9883 20.1 12.5465 20.1 10.0004C20.1 7.45431 19.0886 5.01252 17.2882 3.21217C15.4879 1.41182 13.0461 0.400391 10.5 0.400391C7.95395 0.400391 5.51215 1.41182 3.7118 3.21217C1.91145 5.01252 0.900024 7.45431 0.900024 10.0004C0.900024 12.5465 1.91145 14.9883 3.7118 16.7886C5.51215 18.589 7.95395 19.6004 10.5 19.6004ZM14.9484 8.44879C15.167 8.22247 15.288 7.91935 15.2852 7.60471C15.2825 7.29007 15.1563 6.9891 14.9338 6.76661C14.7113 6.54412 14.4103 6.41792 14.0957 6.41518C13.7811 6.41245 13.4779 6.5334 13.2516 6.75199L9.30002 10.7036L7.74842 9.15199C7.5221 8.9334 7.21898 8.81245 6.90434 8.81518C6.58971 8.81792 6.28873 8.94412 6.06624 9.16661C5.84375 9.3891 5.71755 9.69007 5.71482 10.0047C5.71208 10.3193 5.83303 10.6225 6.05162 10.8488L8.45162 13.2488C8.67666 13.4738 8.98183 13.6001 9.30002 13.6001C9.61822 13.6001 9.92339 13.4738 10.1484 13.2488L14.9484 8.44879Z" fill="#00AA3A"/>
</svg>
