<svg width="24" height="24" viewBox="0 0 24 24" fill="none" xmlns="http://www.w3.org/2000/svg">
<rect width="24" height="24" rx="12" fill="#E8E8E8" fill-opacity="0.7"/>
<path d="M15.8228 8.18326C15.7667 8.12701 15.7 8.08238 15.6266 8.05193C15.5532 8.02148 15.4745 8.00581 15.395 8.00581C15.3155 8.00581 15.2369 8.02148 15.1634 8.05193C15.09 8.08238 15.0234 8.12701 14.9672 8.18326L12 11.1444L9.03278 8.1772C8.9766 8.12102 8.90991 8.07646 8.8365 8.04605C8.7631 8.01565 8.68443 8 8.60499 8C8.52554 8 8.44687 8.01565 8.37347 8.04605C8.30007 8.07646 8.23337 8.12102 8.1772 8.1772C8.12102 8.23337 8.07646 8.30007 8.04605 8.37347C8.01565 8.44687 8 8.52554 8 8.60499C8 8.68443 8.01565 8.7631 8.04605 8.8365C8.07646 8.90991 8.12102 8.9766 8.1772 9.03278L11.1444 12L8.1772 14.9672C8.12102 15.0234 8.07646 15.0901 8.04605 15.1635C8.01565 15.2369 8 15.3156 8 15.395C8 15.4745 8.01565 15.5531 8.04605 15.6265C8.07646 15.6999 8.12102 15.7666 8.1772 15.8228C8.23337 15.879 8.30007 15.9235 8.37347 15.9539C8.44687 15.9844 8.52554 16 8.60499 16C8.68443 16 8.7631 15.9844 8.8365 15.9539C8.90991 15.9235 8.9766 15.879 9.03278 15.8228L12 12.8556L14.9672 15.8228C15.0234 15.879 15.0901 15.9235 15.1635 15.9539C15.2369 15.9844 15.3156 16 15.395 16C15.4745 16 15.5531 15.9844 15.6265 15.9539C15.6999 15.9235 15.7666 15.879 15.8228 15.8228C15.879 15.7666 15.9235 15.6999 15.9539 15.6265C15.9844 15.5531 16 15.4745 16 15.395C16 15.3156 15.9844 15.2369 15.9539 15.1635C15.9235 15.0901 15.879 15.0234 15.8228 14.9672L12.8556 12L15.8228 9.03278C16.0534 8.80219 16.0534 8.41385 15.8228 8.18326Z" fill="#919191"/>
</svg>
