<svg width="21" height="27" viewBox="0 0 21 27" fill="none" xmlns="http://www.w3.org/2000/svg">
<path d="M10.7198 20.1341C10.0691 20.1341 9.44511 19.8756 8.98503 19.4156C8.52495 18.9555 8.26648 18.3315 8.26648 17.6808C8.26648 16.3192 9.35819 15.2275 10.7198 15.2275C11.3704 15.2275 11.9944 15.486 12.4545 15.9461C12.9146 16.4062 13.1731 17.0302 13.1731 17.6808C13.1731 18.3315 12.9146 18.9555 12.4545 19.4156C11.9944 19.8756 11.3704 20.1341 10.7198 20.1341ZM18.0796 23.814V11.5476H3.3599V23.814H18.0796ZM18.0796 9.09432C18.7303 9.09432 19.3543 9.35279 19.8144 9.81287C20.2744 10.2729 20.5329 10.897 20.5329 11.5476V23.814C20.5329 24.4647 20.2744 25.0887 19.8144 25.5488C19.3543 26.0089 18.7303 26.2673 18.0796 26.2673H3.3599C2.70925 26.2673 2.08525 26.0089 1.62517 25.5488C1.16509 25.0887 0.906616 24.4647 0.906616 23.814V11.5476C0.906616 10.186 1.99833 9.09432 3.3599 9.09432H4.58655V6.64103C4.58655 5.0144 5.23272 3.45439 6.38293 2.30419C7.53313 1.15399 9.09313 0.507813 10.7198 0.507812C11.5252 0.507812 12.3227 0.666453 13.0668 0.974676C13.811 1.2829 14.4871 1.73467 15.0566 2.30419C15.6261 2.87371 16.0779 3.54983 16.3861 4.29395C16.6943 5.03807 16.853 5.8356 16.853 6.64103V9.09432H18.0796ZM10.7198 2.9611C9.74379 2.9611 8.80778 3.34881 8.11766 4.03893C7.42754 4.72905 7.03983 5.66505 7.03983 6.64103V9.09432H14.3997V6.64103C14.3997 5.66505 14.012 4.72905 13.3219 4.03893C12.6317 3.34881 11.6957 2.9611 10.7198 2.9611Z" fill="#828282"/>
</svg>
