<svg width="21" height="20" viewBox="0 0 21 20" fill="none" xmlns="http://www.w3.org/2000/svg">
<path d="M17.5 9H3.5M17.5 9C18.0304 9 18.5391 9.21071 18.9142 9.58579C19.2893 9.96086 19.5 10.4696 19.5 11V17C19.5 17.5304 19.2893 18.0391 18.9142 18.4142C18.5391 18.7893 18.0304 19 17.5 19H3.5C2.96957 19 2.46086 18.7893 2.08579 18.4142C1.71071 18.0391 1.5 17.5304 1.5 17V11C1.5 10.4696 1.71071 9.96086 2.08579 9.58579C2.46086 9.21071 2.96957 9 3.5 9M17.5 9V7C17.5 6.46957 17.2893 5.96086 16.9142 5.58579C16.5391 5.21071 16.0304 5 15.5 5M3.5 9V7C3.5 6.46957 3.71071 5.96086 4.08579 5.58579C4.46086 5.21071 4.96957 5 5.5 5M15.5 5V3C15.5 2.46957 15.2893 1.96086 14.9142 1.58579C14.5391 1.21071 14.0304 1 13.5 1H7.5C6.96957 1 6.46086 1.21071 6.08579 1.58579C5.71071 1.96086 5.5 2.46957 5.5 3V5M15.5 5H5.5" stroke="#FEFEFE" stroke-width="2" stroke-linecap="round" stroke-linejoin="round"/>
</svg>
