<svg width="21" height="20" viewBox="0 0 21 20" fill="none" xmlns="http://www.w3.org/2000/svg">
<path d="M10.7198 0.1875C12.0211 0.1875 13.2691 0.704441 14.1892 1.6246C15.1094 2.54476 15.6263 3.79277 15.6263 5.09407C15.6263 6.39538 15.1094 7.64339 14.1892 8.56355C13.2691 9.48371 12.0211 10.0006 10.7198 10.0006C9.41846 10.0006 8.17045 9.48371 7.25029 8.56355C6.33013 7.64339 5.81319 6.39538 5.81319 5.09407C5.81319 3.79277 6.33013 2.54476 7.25029 1.6246C8.17045 0.704441 9.41846 0.1875 10.7198 0.1875ZM10.7198 12.4539C16.1415 12.4539 20.5329 14.6496 20.5329 17.3605V19.8138H0.906616V17.3605C0.906616 14.6496 5.298 12.4539 10.7198 12.4539Z" fill="#828282"/>
</svg>
