<svg width="15" height="10" viewBox="0 0 15 10" fill="none" xmlns="http://www.w3.org/2000/svg">
<path fill-rule="evenodd" clip-rule="evenodd" d="M14.207 0.292787C14.3945 0.480314 14.4998 0.734622 14.4998 0.999786C14.4998 1.26495 14.3945 1.51926 14.207 1.70679L6.20698 9.70679C6.01945 9.89426 5.76514 9.99957 5.49998 9.99957C5.23482 9.99957 4.98051 9.89426 4.79298 9.70679L0.79298 5.70679C0.610822 5.51818 0.510027 5.26558 0.512306 5.00339C0.514584 4.74119 0.619753 4.49038 0.805161 4.30497C0.990569 4.11956 1.24138 4.01439 1.50358 4.01211C1.76578 4.00983 2.01838 4.11063 2.20698 4.29279L5.49998 7.58579L12.793 0.292787C12.9805 0.105316 13.2348 0 13.5 0C13.7651 0 14.0195 0.105316 14.207 0.292787Z" fill="white"/>
</svg>
