<svg width="24" height="24" viewBox="0 0 24 24" fill="none" xmlns="http://www.w3.org/2000/svg">
<rect width="24" height="24" rx="12" fill="white"/>
<path d="M11.4321 17.763L6.2173 12.5481C6.13828 12.4691 6.08219 12.3835 6.049 12.2913C6.01581 12.1992 5.99949 12.1004 6.00001 11.995C6.00001 11.8897 6.01661 11.7909 6.04979 11.6988C6.08298 11.6066 6.13881 11.521 6.2173 11.442L11.4321 6.22713C11.577 6.08228 11.7582 6.00669 11.9757 6.00037C12.1933 5.99404 12.3808 6.06963 12.5383 6.22713C12.6963 6.37199 12.7788 6.55319 12.7856 6.77074C12.7925 6.98829 12.7166 7.17581 12.5581 7.33331L8.68644 11.2049H17.5161C17.74 11.2049 17.9277 11.2808 18.0794 11.4325C18.2312 11.5842 18.3067 11.7717 18.3062 11.995C18.3062 12.2189 18.2306 12.4067 18.0794 12.5584C17.9283 12.7101 17.7405 12.7857 17.5161 12.7852H8.68644L12.5581 16.6568C12.7029 16.8016 12.7788 16.986 12.7856 17.2099C12.7925 17.4337 12.7166 17.6181 12.5581 17.763C12.4132 17.921 12.2288 18 12.005 18C11.7811 18 11.5901 17.921 11.4321 17.763Z" fill="#868686"/>
</svg>
