<svg width="180" height="180" viewBox="0 0 180 180" fill="none" xmlns="http://www.w3.org/2000/svg">
<rect width="180" height="180" rx="90" fill="#008A92" fill-opacity="0.6"/>
<rect x="10" y="10" width="160" height="160" rx="80" fill="#008A92" fill-opacity="0.6"/>
<rect x="30" y="30" width="120" height="120" rx="60" fill="#008A92"/>
<path d="M80.6667 78.332H73.6667C72.429 78.332 71.242 78.8237 70.3668 79.6989C69.4917 80.574 69 81.761 69 82.9987V103.999C69 105.236 69.4917 106.423 70.3668 107.299C71.242 108.174 72.429 108.665 73.6667 108.665H106.333C107.571 108.665 108.758 108.174 109.633 107.299C110.508 106.423 111 105.236 111 103.999V82.9987C111 81.761 110.508 80.574 109.633 79.6989C108.758 78.8237 107.571 78.332 106.333 78.332H99.3333M97 87.6654L90 94.6654M90 94.6654L83 87.6654M90 94.6654V71.332" stroke="white" stroke-width="3" stroke-linecap="round" stroke-linejoin="round"/>
</svg>
