<svg width="115" height="115" viewBox="0 0 115 115" fill="none" xmlns="http://www.w3.org/2000/svg">
<path d="M99.6667 0H15.3333C6.86497 0 0 6.86497 0 15.3333V99.6667C0 108.135 6.86497 115 15.3333 115H99.6667C108.135 115 115 108.135 115 99.6667V15.3333C115 6.86497 108.135 0 99.6667 0Z" fill="white"/>
<path fill-rule="evenodd" clip-rule="evenodd" d="M61.9152 58.2143L61.9305 58.2279L78.2863 29.8041C78.7942 29.0256 79.0893 28.0949 79.0893 27.095C79.0893 24.3589 76.8788 22.1409 74.152 22.1409C74.1034 22.1409 74.0549 22.1417 74.007 22.1431L74.0076 22.1409H61.9382C62.6355 24.0671 63.5011 25.9474 64.4345 27.8135C65.4184 29.7805 66.4885 31.7283 67.3855 33.7354C68.1062 35.3483 68.8058 37.2137 68.8058 39.0029C68.8058 45.2713 64.2824 50.4952 57.8829 50.4952C51.4462 50.4952 46.4291 44.3531 46.4291 38.1277C46.4291 37.4261 46.4933 36.7266 46.6153 36.0358C47.3069 32.1168 49.8319 28.5943 52.1535 25.4659C52.9691 24.3668 53.8066 23.2671 54.6004 22.1409H40.9411C40.9288 22.1408 40.9166 22.1409 40.9042 22.1409C38.1772 22.1409 35.9665 24.3589 35.9665 27.095C35.9665 28.0951 36.2621 29.0257 36.7701 29.8044L53.2424 58.4307L53.2543 58.4216C54.1088 59.8994 55.7027 60.8934 57.528 60.8934C59.4376 60.8934 61.0938 59.8057 61.9152 58.2143Z" fill="#182755"/>
<path d="M67.7146 39.003C67.7146 44.7949 63.5659 49.4902 57.7933 49.4902C52.021 49.4902 47.3411 43.9198 47.3411 38.1278C47.3411 28.9956 59.1844 21.915 59.1844 13.4167C59.1844 24.6874 67.7146 33.2112 67.7146 39.003Z" fill="url(#paint0_radial_65_44548)"/>
<path d="M57.7935 49.2373C55.1225 49.2373 52.5645 48.0207 50.5906 45.8121C48.6861 43.6808 47.5938 40.8801 47.5938 38.128C47.5938 33.564 50.6599 29.4502 53.625 25.4719C55.9838 22.3071 58.2395 19.2803 59.0857 16.0527C59.7212 21.5782 62.2136 26.4296 64.2709 30.4342C65.9832 33.7675 67.4622 36.646 67.4622 39.0032C67.4622 41.7754 66.493 44.3479 64.7341 46.2464C62.9468 48.175 60.4819 49.2373 57.7935 49.2373Z" fill="url(#paint1_radial_65_44548)"/>
<path d="M64.2709 30.4342C62.2136 26.4296 59.7212 21.5782 59.0857 16.0527C58.6185 17.8347 57.7212 19.5555 56.6147 21.2719C57.3504 23.5846 58.259 26.1739 59.1838 28.1408C61.3343 32.7151 65.2906 35.9947 65.0331 39.9646C64.8562 42.6828 63.9937 46.2902 60.6249 48.8218C62.1901 48.3461 63.5991 47.4713 64.7341 46.2464C66.493 44.3479 67.4622 41.7754 67.4622 39.0032C67.4622 36.646 65.9832 33.7675 64.2709 30.4342Z" fill="url(#paint2_radial_65_44548)"/>
<path d="M49.857 37.2605C49.4917 37.2649 49.0949 37.3005 48.6658 37.3786C48.6554 37.5195 48.6498 37.6594 48.6498 37.7977C48.6498 39.0076 49.1161 40.72 50.379 41.8262C50.0838 40.8172 49.8512 39.4285 49.8512 37.5568C49.8512 37.4582 49.8535 37.3594 49.857 37.2605Z" fill="url(#paint3_linear_65_44548)"/>
<path d="M53.8046 25.9623C53.8046 25.9623 47.7382 32.7473 47.7382 37.6864C47.7382 42.6253 50.6222 46.816 53.9538 48.3128C51.7162 46.8659 48.3351 43.0244 48.3351 37.8859C48.3351 35.2529 48.882 32.9967 53.8046 25.9623Z" fill="#C6E9F6"/>
<path d="M51.9048 31.6707C51.6956 32.2439 51.7533 32.7924 52.0335 32.8955C52.3139 32.9983 52.7109 32.6172 52.9203 32.0437C53.1294 31.4703 53.0719 30.9218 52.7913 30.8189C52.5111 30.7157 52.1141 31.0972 51.9048 31.6707Z" fill="white"/>
<path d="M52.2984 29.8406C52.1801 30.1646 52.2128 30.4743 52.3711 30.5326C52.5294 30.5909 52.7538 30.3753 52.872 30.0514C52.9903 29.7274 52.9576 29.4174 52.7993 29.3594C52.6409 29.3011 52.4166 29.5165 52.2984 29.8406Z" fill="white"/>
<path d="M65.8516 43.3714C65.8516 43.3714 63.5696 48.7357 58.2229 48.7357C52.8771 48.7357 51.9157 45.6019 52.5768 44.8783C53.5548 43.5503 55.2278 45.1643 58.3435 46.325C62.0677 46.325 64.1099 45.4813 65.8516 43.3714Z" fill="url(#paint4_linear_65_44548)"/>
<path fill-rule="evenodd" clip-rule="evenodd" d="M9.58333 100.37V97.8586C9.58333 97.3846 9.6961 97.014 9.92086 96.7457C10.1456 96.4786 10.4568 96.3444 10.8537 96.3444C11.2028 96.3444 11.496 96.4505 11.7331 96.6626C11.9702 96.8747 12.0887 97.1335 12.0887 97.4376C12.0887 97.6056 12.051 97.757 11.9766 97.8931C11.9024 98.0279 11.7906 98.1467 11.642 98.2483C11.8414 98.3346 11.9975 98.463 12.1084 98.6323C12.2195 98.8022 12.2748 98.9946 12.2748 99.2099C12.2748 99.5542 12.1537 99.8334 11.9099 100.049C11.6663 100.263 11.3456 100.37 10.9469 100.37H10.2999V99.8724H10.9526C11.1914 99.8724 11.3796 99.8117 11.517 99.6909C11.6532 99.5708 11.7218 99.4066 11.7218 99.1984C11.7218 98.9984 11.6532 98.838 11.5149 98.7198C11.3766 98.601 11.1896 98.5416 10.9526 98.5416H10.2999V98.0662H10.7626C11.0061 98.0662 11.1999 98.0119 11.3439 97.904C11.4867 97.796 11.5581 97.6497 11.5581 97.4657C11.5581 97.2791 11.4944 97.1258 11.3653 97.0063C11.2375 96.8862 11.0721 96.8262 10.87 96.8262C10.63 96.8262 10.4417 96.9041 10.3063 97.0606C10.17 97.2184 10.1024 97.4357 10.1024 97.7149V100.37H9.58333ZM15.3391 99.1709C15.2714 99.5581 15.1153 99.8647 14.8709 100.089C14.6271 100.314 14.3298 100.427 13.979 100.427C13.8597 100.427 13.7421 100.411 13.6256 100.379C13.5089 100.346 13.3987 100.299 13.2963 100.237C13.08 100.103 12.9116 99.9299 12.7923 99.7152C12.6728 99.5025 12.6133 99.2661 12.6133 99.0105C12.6133 98.8221 12.6483 98.6432 12.717 98.4739C12.7857 98.3039 12.8853 98.1506 13.0149 98.0139C13.1458 97.8791 13.2945 97.7768 13.46 97.7066C13.6265 97.6363 13.8013 97.6018 13.9847 97.6018C14.2586 97.6018 14.5031 97.6746 14.7184 97.8196C14.9345 97.964 15.1095 98.1755 15.2432 98.4528L13.4722 99.4373L13.2679 99.0693L14.583 98.3339C14.5021 98.2432 14.4108 98.1755 14.31 98.1289C14.2085 98.0829 14.0986 98.0605 13.979 98.0605C13.7365 98.0605 13.5315 98.1506 13.3649 98.3333C13.1984 98.5141 13.1157 98.739 13.1157 99.0061C13.1157 99.2712 13.1995 99.4954 13.3668 99.6775C13.5343 99.8596 13.7374 99.9516 13.9784 99.9516C14.2085 99.9516 14.4004 99.8749 14.5566 99.7229C14.7119 99.5708 14.8087 99.3613 14.8471 99.0961L15.3391 99.1709ZM17.9011 100.37V99.0201C17.9011 98.7358 17.821 98.5058 17.6611 98.3301C17.5013 98.1538 17.2935 98.0662 17.0375 98.0662C16.7836 98.0662 16.5758 98.1525 16.413 98.3276C16.2505 98.5007 16.1686 98.7256 16.1686 99.0003C16.1686 99.2801 16.2521 99.5095 16.4198 99.689C16.587 99.8673 16.7998 99.9574 17.0594 99.9574C17.1768 99.9574 17.2917 99.9363 17.4025 99.8954C17.5135 99.8551 17.6253 99.7932 17.7374 99.7082V100.23C17.6273 100.293 17.5107 100.339 17.3893 100.37C17.267 100.401 17.1392 100.415 17.0046 100.415C16.8768 100.415 16.7489 100.396 16.622 100.356C16.4957 100.316 16.3813 100.261 16.2777 100.189C16.083 100.054 15.9343 99.8852 15.832 99.6833C15.7293 99.4814 15.6776 99.2565 15.6776 99.0092C15.6776 98.6036 15.8054 98.2688 16.0605 98.0043C16.3153 97.7391 16.6387 97.6075 17.0321 97.6075C17.2904 97.6075 17.5274 97.6721 17.7421 97.8037C17.9565 97.9346 18.1221 98.1148 18.2377 98.3435C18.2913 98.447 18.3288 98.5601 18.3516 98.6828C18.3751 98.8054 18.3864 98.9888 18.3864 99.2322V100.37H17.9011ZM21.2644 97.658V99.1377C21.2644 99.5325 21.1599 99.8449 20.952 100.076C20.7432 100.306 20.4639 100.421 20.1131 100.421C19.764 100.421 19.4858 100.306 19.2789 100.076C19.071 99.8449 18.9677 99.5325 18.9677 99.1377V97.658H19.4472V99.2265C19.4472 99.4411 19.5102 99.6143 19.6363 99.7497C19.7622 99.8845 19.9221 99.9516 20.1178 99.9516C20.3144 99.9516 20.4743 99.8845 20.5985 99.7497C20.7226 99.6143 20.7848 99.4411 20.7848 99.2265V97.658H21.2644ZM21.8633 96.9392H22.3485V97.658H23.1668V98.1167H22.3485V99.2789C22.3485 99.4954 22.4014 99.6552 22.5066 99.7548C22.613 99.8558 22.7814 99.9062 23.0128 99.9062H23.1668V100.37H23.0071C22.6252 100.37 22.3384 100.286 22.1484 100.118C21.9584 99.9516 21.8633 99.6986 21.8633 99.3613V96.9392ZM23.6748 100.37V97.658H24.1603V100.37H23.6748ZM23.6241 96.8875C23.6241 96.8064 23.6523 96.7361 23.7095 96.6799C23.7662 96.6224 23.8366 96.5936 23.9193 96.5936C24.0013 96.5936 24.0708 96.6224 24.1272 96.6779C24.1826 96.7342 24.211 96.8044 24.211 96.8875C24.211 96.9712 24.1826 97.0427 24.1272 97.1015C24.0708 97.159 24.0013 97.1884 23.9193 97.1884C23.8385 97.1884 23.769 97.159 23.7108 97.0996C23.6533 97.0408 23.6241 96.9706 23.6241 96.8875ZM24.8271 100.37V97.4203C24.8271 97.0836 24.922 96.8313 25.111 96.6639C25.3001 96.4965 25.586 96.4128 25.9678 96.4128H26.2602V96.8766H25.9791C25.7458 96.8766 25.5756 96.9277 25.4673 97.0287C25.3602 97.1296 25.3066 97.2894 25.3066 97.5066V97.658H26.2602V98.1167H25.3066V100.37H24.8271ZM28.8447 97.658V99.1377C28.8447 99.5325 28.7404 99.8449 28.5325 100.076C28.3237 100.306 28.0445 100.421 27.6937 100.421C27.3446 100.421 27.0663 100.306 26.8594 100.076C26.6515 99.8449 26.5481 99.5325 26.5481 99.1377V97.658H27.0277V99.2265C27.0277 99.4411 27.0907 99.6143 27.2167 99.7497C27.3428 99.8845 27.5026 99.9516 27.6983 99.9516C27.8949 99.9516 28.0548 99.8845 28.1791 99.7497C28.3032 99.6143 28.3654 99.4411 28.3654 99.2265V97.658H28.8447ZM29.4779 100.37V96.4128H29.9631V100.37H29.4779ZM30.6299 100.37V96.4128H31.1151V100.37H30.6299ZM34.0392 97.658V99.1377C34.0392 99.4839 33.9638 99.7625 33.8133 99.9714C33.663 100.181 33.4354 100.323 33.1305 100.399V101.576H32.6452V100.399C32.3405 100.323 32.1141 100.182 31.9653 99.9733C31.8167 99.7644 31.7425 99.4859 31.7425 99.1377V97.658H32.222V99.2265C32.222 99.4411 32.285 99.6143 32.4112 99.7497C32.537 99.8845 32.6969 99.9516 32.8926 99.9516C33.0895 99.9516 33.2492 99.8845 33.3734 99.7497C33.4974 99.6143 33.5596 99.4411 33.5596 99.2265V97.658H34.0392ZM36.1957 100.37V97.8586C36.1957 97.3846 36.3085 97.014 36.5333 96.7457C36.758 96.4786 37.0694 96.3444 37.4664 96.3444C37.8152 96.3444 38.1088 96.4505 38.3457 96.6626C38.5828 96.8747 38.7013 97.1335 38.7013 97.4376C38.7013 97.6056 38.6637 97.757 38.5893 97.8931C38.5151 98.0279 38.4033 98.1467 38.2544 98.2483C38.454 98.3346 38.61 98.463 38.7211 98.6323C38.8319 98.8022 38.8875 98.9946 38.8875 99.2099C38.8875 99.5542 38.7661 99.8334 38.5226 100.049C38.279 100.263 37.9582 100.37 37.5594 100.37H36.9123V99.8724H37.565C37.8039 99.8724 37.9922 99.8117 38.1294 99.6909C38.2656 99.5708 38.3344 99.4066 38.3344 99.1984C38.3344 98.9984 38.2656 98.838 38.1275 98.7198C37.9892 98.601 37.8022 98.5416 37.565 98.5416H36.9123V98.0662H37.375C37.6186 98.0662 37.8124 98.0119 37.9563 97.904C38.0991 97.796 38.1707 97.6497 38.1707 97.4657C38.1707 97.2791 38.1068 97.1258 37.9779 97.0063C37.8501 96.8862 37.6846 96.8262 37.4823 96.8262C37.2423 96.8262 37.0544 96.9041 36.919 97.0606C36.7827 97.2184 36.7148 97.4357 36.7148 97.7149V100.37H36.1957ZM41.4551 100.37V99.0201C41.4551 98.7358 41.3751 98.5058 41.2151 98.3301C41.0553 98.1538 40.8476 98.0662 40.5915 98.0662C40.3379 98.0662 40.1298 98.1525 39.967 98.3276C39.8045 98.5007 39.7225 98.7256 39.7225 99.0003C39.7225 99.2801 39.8064 99.5095 39.9738 99.689C40.1411 99.8673 40.3539 99.9574 40.6133 99.9574C40.7308 99.9574 40.8456 99.9363 40.9565 99.8954C41.0676 99.8551 41.1794 99.7932 41.2915 99.7082V100.23C41.1815 100.293 41.0648 100.339 40.9434 100.37C40.8212 100.401 40.6932 100.415 40.5589 100.415C40.4309 100.415 40.3029 100.396 40.1761 100.356C40.05 100.316 39.9352 100.261 39.8317 100.189C39.637 100.054 39.4886 99.8852 39.386 99.6833C39.2835 99.4814 39.2317 99.2565 39.2317 99.0092C39.2317 98.6036 39.3596 98.2688 39.6145 98.0043C39.8693 97.7391 40.1929 97.6075 40.5861 97.6075C40.8447 97.6075 41.0817 97.6721 41.2961 97.8037C41.5105 97.9346 41.6761 98.1148 41.7916 98.3435C41.8454 98.447 41.8831 98.5601 41.9056 98.6828C41.9291 98.8054 41.9403 98.9888 41.9403 99.2322V100.37H41.4551ZM42.5611 100.37V96.4128H43.0465V100.37H42.5611ZM45.7788 100.37V99.0201C45.7788 98.7358 45.6987 98.5058 45.5387 98.3301C45.3788 98.1538 45.1712 98.0662 44.9152 98.0662C44.6613 98.0662 44.4534 98.1525 44.2907 98.3276C44.1281 98.5007 44.0462 98.7256 44.0462 99.0003C44.0462 99.2801 44.1298 99.5095 44.2972 99.689C44.4647 99.8673 44.6772 99.9574 44.9368 99.9574C45.0544 99.9574 45.1691 99.9363 45.2802 99.8954C45.3913 99.8551 45.503 99.7932 45.6148 99.7082V100.23C45.5049 100.293 45.3884 100.339 45.267 100.37C45.1446 100.401 45.0168 100.415 44.8823 100.415C44.7543 100.415 44.6263 100.396 44.4997 100.356C44.3733 100.316 44.2587 100.261 44.1553 100.189C43.9606 100.054 43.812 99.8852 43.7096 99.6833C43.607 99.4814 43.5553 99.2565 43.5553 99.0092C43.5553 98.6036 43.6831 98.2688 43.9381 98.0043C44.193 97.7391 44.5164 97.6075 44.9095 97.6075C45.1681 97.6075 45.4051 97.6721 45.6198 97.8037C45.8341 97.9346 45.9998 98.1148 46.1153 98.3435C46.1689 98.447 46.2065 98.5601 46.2293 98.6828C46.2527 98.8054 46.264 98.9888 46.264 99.2322V100.37H45.7788ZM46.8453 100.37V98.8904C46.8453 98.4962 46.9495 98.1838 47.1593 97.9525C47.3681 97.7225 47.6476 97.6075 47.9964 97.6075C48.3454 97.6075 48.6237 97.7225 48.8307 97.9525C49.0384 98.1838 49.1418 98.4962 49.1418 98.8904V100.37H48.6624V98.8023C48.6624 98.5876 48.6002 98.4144 48.4762 98.279C48.352 98.1442 48.192 98.0771 47.9954 98.0771C47.7998 98.0771 47.6398 98.1442 47.5137 98.279C47.3879 98.4144 47.3249 98.5876 47.3249 98.8023V100.37H46.8453ZM51.4395 98.1225H51.2298C50.8904 98.1225 50.6185 98.2036 50.4162 98.3672C50.214 98.5301 50.1134 98.7473 50.1134 99.0182C50.1134 99.2878 50.2149 99.5037 50.4183 99.6673C50.6212 99.8309 50.8922 99.912 51.2298 99.912H51.4395V100.37H51.1971C50.7144 100.37 50.3298 100.247 50.042 99.9982C49.7553 99.7504 49.611 99.4213 49.611 99.0105C49.611 98.7888 49.6629 98.5818 49.7654 98.3908C49.868 98.1991 50.0136 98.0375 50.2027 97.9072C50.3354 97.819 50.4757 97.7545 50.6243 97.7161C50.7728 97.6772 50.9637 97.658 51.1971 97.658H51.4395V98.1225ZM54.5028 99.1709C54.4352 99.5581 54.2792 99.8647 54.0347 100.089C53.791 100.314 53.4936 100.427 53.143 100.427C53.0237 100.427 52.9058 100.411 52.7892 100.379C52.6726 100.346 52.5627 100.299 52.46 100.237C52.2439 100.103 52.0755 99.9299 51.956 99.7152C51.8366 99.5025 51.7772 99.2661 51.7772 99.0105C51.7772 98.8221 51.812 98.6432 51.8808 98.4739C51.9496 98.3039 52.049 98.1506 52.1789 98.0139C52.3097 97.8791 52.4583 97.7768 52.6239 97.7066C52.7904 97.6363 52.9652 97.6018 53.1486 97.6018C53.4225 97.6018 53.667 97.6746 53.8821 97.8196C54.0984 97.964 54.2734 98.1755 54.407 98.4528L52.6361 99.4373L52.4318 99.0693L53.7465 98.3339C53.6658 98.2432 53.5747 98.1755 53.4738 98.1289C53.3725 98.0829 53.2623 98.0605 53.143 98.0605C52.9003 98.0605 52.6953 98.1506 52.5288 98.3333C52.3623 98.5141 52.2796 98.739 52.2796 99.0061C52.2796 99.2712 52.3632 99.4954 52.5307 99.6775C52.6981 99.8596 52.9013 99.9516 53.142 99.9516C53.3725 99.9516 53.5643 99.8749 53.7205 99.7229C53.8757 99.5708 53.9725 99.3613 54.011 99.0961L54.5028 99.1709ZM57.5615 96.4128V98.7965C57.5615 99.0399 57.5502 99.2226 57.5268 99.3447C57.504 99.4661 57.4655 99.5779 57.4129 99.6794C57.2989 99.912 57.1344 100.094 56.9192 100.225C56.7047 100.356 56.4665 100.421 56.2061 100.421C55.8131 100.421 55.4877 100.288 55.2318 100.021C54.975 99.7548 54.8469 99.4181 54.8469 99.0105C54.8469 98.8272 54.8779 98.6527 54.9411 98.4879C55.0033 98.3218 55.0945 98.1723 55.2138 98.0413C55.3352 97.9052 55.4802 97.7998 55.6492 97.7251C55.8186 97.651 55.9955 97.6126 56.1788 97.6126C56.3135 97.6126 56.4414 97.628 56.5636 97.658C56.686 97.6887 56.8024 97.7359 56.9123 97.7979V98.3205C56.8005 98.2356 56.6885 98.1736 56.5776 98.1327C56.4665 98.0924 56.3519 98.0714 56.2343 98.0714C55.9748 98.0714 55.7622 98.1614 55.5948 98.3397C55.4273 98.5186 55.3436 98.7479 55.3436 99.0284C55.3436 99.3031 55.4256 99.5274 55.5882 99.7012C55.7509 99.8756 55.9588 99.9625 56.2127 99.9625C56.4687 99.9625 56.6763 99.8749 56.8363 99.6986C56.9962 99.5229 57.076 99.2929 57.076 99.0086V96.4128H57.5615ZM59.5703 100.37V99.8436H60.9189C61.1334 99.8436 61.2962 99.8015 61.4073 99.7165C61.5183 99.6315 61.5737 99.5076 61.5737 99.3434C61.5737 99.2163 61.5312 99.1057 61.4457 99.0105C61.3602 98.9153 61.2003 98.8086 60.9651 98.6885L60.305 98.3493C60.0621 98.2253 59.8815 98.0829 59.764 97.9212C59.6467 97.7609 59.5872 97.5769 59.5872 97.3705C59.5872 97.0741 59.6946 96.8409 59.9099 96.669C60.1251 96.4984 60.4197 96.4128 60.7949 96.4128H61.9347V96.9335H60.6218C60.4713 96.9335 60.3508 96.9725 60.2627 97.0485C60.1732 97.1252 60.1291 97.2248 60.1291 97.3507C60.1291 97.4651 60.1676 97.5641 60.2456 97.6478C60.3236 97.7321 60.511 97.8497 60.8062 98.003L61.3809 98.2962C61.633 98.4253 61.8191 98.5729 61.9403 98.739C62.0608 98.9051 62.121 99.0974 62.121 99.3166C62.121 99.6507 62.0073 99.9088 61.7804 100.094C61.5539 100.278 61.2323 100.37 60.8165 100.37H59.5703ZM64.9245 97.658V99.1377C64.9245 99.5325 64.8204 99.8449 64.6121 100.076C64.4038 100.306 64.1246 100.421 63.7734 100.421C63.4245 100.421 63.1462 100.306 62.9392 100.076C62.7314 99.8449 62.628 99.5325 62.628 99.1377V97.658H63.1077V99.2265C63.1077 99.4411 63.1706 99.6143 63.2964 99.7497C63.4226 99.8845 63.5826 99.9516 63.7782 99.9516C63.9745 99.9516 64.1349 99.8845 64.2588 99.7497C64.3828 99.6143 64.4454 99.4411 64.4454 99.2265V97.658H64.9245ZM65.5519 100.37V97.658H65.9985V98.0586C66.0816 97.8995 66.1953 97.7845 66.3403 97.7142C66.4847 97.6433 66.6808 97.6075 66.9262 97.6075H67.0533V98.0771H66.9786C66.647 98.0771 66.4067 98.1563 66.2592 98.3148C66.1116 98.4739 66.0375 98.732 66.0375 99.0897V100.37H65.5519ZM67.3421 101.576V99.2322C67.3421 99.0022 67.353 98.8227 67.3766 98.6955C67.3996 98.5678 67.4379 98.4509 67.4903 98.3435C67.6021 98.1129 67.7657 97.9327 67.9816 97.8024C68.1976 97.6721 68.4378 97.6075 68.7016 97.6075C69.0946 97.6075 69.4185 97.7391 69.6734 98.0043C69.9283 98.2688 70.0561 98.6036 70.0561 99.0092C70.0561 99.1945 70.0241 99.3709 69.9615 99.5389C69.8983 99.7063 69.8069 99.8558 69.6874 99.9861C69.566 100.123 69.4217 100.229 69.2517 100.304C69.0824 100.378 68.9067 100.415 68.7234 100.415C68.5892 100.415 68.4614 100.401 68.3387 100.37C68.2174 100.34 68.1011 100.293 67.9906 100.231V99.7082C68.1011 99.7932 68.2129 99.8551 68.3272 99.8954C68.4416 99.9363 68.5573 99.9574 68.6748 99.9574C68.9342 99.9574 69.1469 99.8673 69.3143 99.689C69.4817 99.5095 69.5654 99.2801 69.5654 99.0003C69.5654 98.7275 69.4836 98.5039 69.3194 98.3282C69.1559 98.1538 68.9463 98.0662 68.6908 98.0662C68.4346 98.0662 68.2269 98.1538 68.0666 98.3301C67.9069 98.5058 67.827 98.7358 67.827 99.0201V101.576H67.3421ZM70.5531 100.37V97.658H70.9997V98.0586C71.0821 97.8995 71.1965 97.7845 71.3409 97.7142C71.4859 97.6433 71.6814 97.6075 71.9268 97.6075H72.0539V98.0771H71.9798C71.6476 98.0771 71.408 98.1563 71.2604 98.3148C71.1122 98.4739 71.0381 98.732 71.0381 99.0897V100.37H70.5531ZM72.388 100.37V97.658H72.8729V100.37H72.388ZM72.3369 96.8875C72.3369 96.8064 72.365 96.7361 72.4225 96.6799C72.4788 96.6224 72.5497 96.5936 72.6321 96.5936C72.7139 96.5936 72.7835 96.6224 72.8404 96.6779C72.8959 96.7342 72.9241 96.8044 72.9241 96.8875C72.9241 96.9712 72.8959 97.0427 72.8404 97.1015C72.7835 97.159 72.7139 97.1884 72.6321 97.1884C72.5516 97.1884 72.4819 97.159 72.4238 97.0996C72.3663 97.0408 72.3369 96.9706 72.3369 96.8875ZM73.4045 99.9062H74.5737C74.6912 99.9062 74.7832 99.8832 74.8503 99.8372C74.9167 99.7913 74.9506 99.7267 74.9506 99.6469C74.9506 99.5779 74.925 99.5204 74.8746 99.4718C74.8247 99.4239 74.7296 99.3702 74.5896 99.3114L74.1271 99.1236C73.8549 99.0124 73.6677 98.9 73.5642 98.785C73.462 98.67 73.4102 98.5224 73.4102 98.3435C73.4102 98.1225 73.4882 97.9525 73.6441 97.835C73.8006 97.7168 74.0249 97.658 74.3168 97.658H75.3173V98.111H74.1878C74.0958 98.111 74.0242 98.1308 73.9725 98.1717C73.9207 98.2119 73.8958 98.2701 73.8958 98.3435C73.8958 98.3991 73.9182 98.4483 73.9642 98.4924C74.0102 98.5371 74.0862 98.5812 74.1929 98.6253L74.6804 98.8246C74.9845 98.9498 75.1889 99.0712 75.2943 99.1869C75.4004 99.3031 75.4528 99.4501 75.4528 99.6296C75.4528 99.8794 75.3601 100.067 75.1749 100.188C74.989 100.31 74.7034 100.37 74.3168 100.37H73.4045V99.9062ZM75.9843 100.37V97.658H76.4699V100.37H75.9843ZM75.9339 96.8875C75.9339 96.8064 75.962 96.7361 76.0195 96.6799C76.0757 96.6224 76.146 96.5936 76.229 96.5936C76.3108 96.5936 76.3804 96.6224 76.4367 96.6779C76.4922 96.7342 76.5204 96.8044 76.5204 96.8875C76.5204 96.9712 76.4922 97.0427 76.4367 97.1015C76.3804 97.159 76.3108 97.1884 76.229 97.1884C76.1479 97.1884 76.0782 97.159 76.0201 97.0996C75.9626 97.0408 75.9339 96.9706 75.9339 96.8875ZM77.0966 100.37V98.8904C77.0966 98.4962 77.2014 98.1838 77.411 97.9525C77.6199 97.7225 77.8991 97.6075 78.2479 97.6075C78.5967 97.6075 78.8753 97.7225 79.0823 97.9525C79.2899 98.1838 79.3934 98.4962 79.3934 98.8904V100.37H78.9143V98.8023C78.9143 98.5876 78.8517 98.4144 78.7277 98.279C78.6038 98.1442 78.4434 98.0771 78.2473 98.0771C78.0518 98.0771 77.8914 98.1442 77.7656 98.279C77.6397 98.4144 77.5764 98.5876 77.5764 98.8023V100.37H77.0966ZM82.577 100.214C82.577 100.654 82.4537 101.001 82.2065 101.254C81.9592 101.507 81.6225 101.633 81.1945 101.633C81.0641 101.633 80.9287 101.62 80.7881 101.594C80.6469 101.569 80.4987 101.53 80.3428 101.478L80.4482 101.016C80.6099 101.068 80.7517 101.107 80.8737 101.132C80.9964 101.157 81.1076 101.169 81.206 101.169C81.4826 101.169 81.6986 101.088 81.8557 100.926C82.0129 100.764 82.0921 100.541 82.0921 100.258V99.0201C82.0921 98.7358 82.0123 98.5058 81.8519 98.3301C81.6922 98.1538 81.4845 98.0662 81.2283 98.0662C80.9747 98.0662 80.7664 98.1525 80.6041 98.3276C80.4412 98.5007 80.3594 98.7256 80.3594 99.0003C80.3594 99.2801 80.4431 99.5095 80.6105 99.689C80.7779 99.8673 80.9907 99.9574 81.2501 99.9574C81.3676 99.9574 81.4826 99.9363 81.5938 99.8954C81.7043 99.8551 81.8161 99.7932 81.9286 99.7082V100.231C81.818 100.293 81.7018 100.34 81.5804 100.37C81.4577 100.401 81.3299 100.415 81.1957 100.415C81.0673 100.415 80.9396 100.396 80.8131 100.356C80.6866 100.316 80.5722 100.261 80.4687 100.189C80.2738 100.054 80.1256 99.8852 80.0228 99.6833C79.9205 99.4814 79.8688 99.2565 79.8688 99.0092C79.8688 98.6036 79.9966 98.2688 80.2515 98.0043C80.5064 97.7391 80.8297 97.6075 81.2226 97.6075C81.4813 97.6075 81.7184 97.6721 81.933 97.8037C82.1477 97.9346 82.3132 98.1148 82.4288 98.3435C82.4825 98.447 82.5195 98.5601 82.5425 98.6828C82.5662 98.8054 82.577 98.9888 82.577 99.2322V100.214ZM83.198 100.37V96.4128H83.6836V100.37H83.198ZM86.6071 97.658V99.1377C86.6071 99.4839 86.5317 99.7625 86.3816 99.9714C86.2308 100.181 86.0034 100.323 85.6986 100.399V101.576H85.2137V100.399C84.909 100.323 84.6822 100.182 84.5333 99.9733C84.3851 99.7644 84.311 99.4859 84.311 99.1377V97.658H84.7901V99.2265C84.7901 99.4411 84.8534 99.6143 84.9792 99.7497C85.1051 99.8845 85.2648 99.9516 85.461 99.9516C85.6578 99.9516 85.8175 99.8845 85.9414 99.7497C86.0654 99.6143 86.128 99.4411 86.128 99.2265V97.658H86.6071ZM88.6395 100.37V99.8436H89.9881C90.2028 99.8436 90.3657 99.8015 90.4763 99.7165C90.5874 99.6315 90.643 99.5076 90.643 99.3434C90.643 99.2163 90.6008 99.1057 90.5152 99.0105C90.4296 98.9153 90.2699 98.8086 90.0348 98.6885L89.3742 98.3493C89.1314 98.2253 88.9512 98.0829 88.8337 97.9212C88.7161 97.7609 88.6567 97.5769 88.6567 97.3705C88.6567 97.0741 88.764 96.8409 88.9793 96.669C89.1946 96.4984 89.4892 96.4128 89.8642 96.4128H91.004V96.9335H89.6911C89.5409 96.9335 89.4202 96.9725 89.332 97.0485C89.2426 97.1252 89.1985 97.2248 89.1985 97.3507C89.1985 97.4651 89.2368 97.5641 89.3148 97.6478C89.3933 97.7321 89.5805 97.8497 89.8757 98.003L90.4501 98.2962C90.7024 98.4253 90.8883 98.5729 91.0097 98.739C91.1305 98.9051 91.1905 99.0974 91.1905 99.3166C91.1905 99.6507 91.0768 99.9088 90.85 100.094C90.6232 100.278 90.3018 100.37 89.8859 100.37H88.6395ZM91.7368 100.37V97.658H92.2223V100.37H91.7368ZM91.6863 96.8875C91.6863 96.8064 91.7144 96.7361 91.7719 96.6799C91.8281 96.6224 91.8984 96.5936 91.9815 96.5936C92.0632 96.5936 92.1329 96.6224 92.1891 96.6779C92.2447 96.7342 92.2728 96.8044 92.2728 96.8875C92.2728 96.9712 92.2447 97.0427 92.1891 97.1015C92.1329 97.159 92.0632 97.1884 91.9815 97.1884C91.9003 97.1884 91.8313 97.159 91.7726 97.0996C91.715 97.0408 91.6863 96.9706 91.6863 96.8875ZM92.8491 100.37V98.8023C92.8491 98.433 92.9449 98.1423 93.1385 97.9283C93.3308 97.7142 93.5908 97.6075 93.9167 97.6075C94.0841 97.6075 94.2387 97.6433 94.3799 97.7142C94.5204 97.7845 94.6431 97.8886 94.7459 98.0241C94.852 97.8867 94.9753 97.7826 95.1152 97.7123C95.2545 97.642 95.4078 97.6075 95.5752 97.6075C95.8985 97.6075 96.1572 97.7149 96.3508 97.9289C96.5451 98.1442 96.6415 98.4349 96.6415 98.8023V100.37H96.1617V98.7103C96.1617 98.5205 96.1074 98.3678 95.9994 98.2515C95.8908 98.1359 95.7503 98.0771 95.5752 98.0771C95.4002 98.0771 95.259 98.1359 95.151 98.2515C95.0424 98.3678 94.9881 98.5205 94.9881 98.7103V100.37H94.5083V98.7103C94.5083 98.5205 94.4533 98.3678 94.3428 98.2515C94.2329 98.1359 94.0911 98.0771 93.916 98.0771C93.7403 98.0771 93.5985 98.1359 93.4899 98.2515C93.3826 98.3678 93.3289 98.5205 93.3289 98.7103V100.37H92.8491ZM97.2274 101.576V99.2322C97.2274 99.0022 97.2389 98.8227 97.2625 98.6955C97.2849 98.5678 97.3239 98.4509 97.3762 98.3435C97.4881 98.1129 97.6516 97.9327 97.8669 97.8024C98.0835 97.6721 98.3231 97.6075 98.5876 97.6075C98.9805 97.6075 99.3044 97.7391 99.5593 98.0043C99.8136 98.2688 99.942 98.6036 99.942 99.0092C99.942 99.1945 99.9101 99.3709 99.8468 99.5389C99.7836 99.7063 99.6929 99.8558 99.5734 99.9861C99.452 100.123 99.307 100.229 99.1377 100.304C98.9684 100.378 98.7927 100.415 98.6093 100.415C98.4745 100.415 98.3467 100.401 98.2247 100.37C98.1033 100.34 97.9864 100.293 97.8765 100.231V99.7082C97.9864 99.7932 98.0988 99.8551 98.2132 99.8954C98.3269 99.9363 98.4426 99.9574 98.5607 99.9574C98.8201 99.9574 99.0322 99.8673 99.2003 99.689C99.367 99.5095 99.4507 99.2801 99.4507 99.0003C99.4507 98.7275 99.3689 98.5039 99.2054 98.3282C99.0418 98.1538 98.8323 98.0662 98.5761 98.0662C98.3205 98.0662 98.1123 98.1538 97.9525 98.3301C97.7928 98.5058 97.7129 98.7358 97.7129 99.0201V101.576H97.2274ZM100.444 100.37V96.4128H100.93V100.37H100.444ZM104.158 99.1709C104.09 99.5581 103.934 99.8647 103.69 100.089C103.446 100.314 103.149 100.427 102.798 100.427C102.679 100.427 102.561 100.411 102.445 100.379C102.328 100.346 102.218 100.299 102.116 100.237C101.899 100.103 101.731 99.9299 101.611 99.7152C101.492 99.5025 101.433 99.2661 101.433 99.0105C101.433 98.8221 101.467 98.6432 101.536 98.4739C101.605 98.3039 101.704 98.1506 101.834 98.0139C101.965 97.8791 102.114 97.7768 102.279 97.7066C102.446 97.6363 102.62 97.6018 102.804 97.6018C103.078 97.6018 103.322 97.6746 103.538 97.8196C103.754 97.964 103.929 98.1755 104.062 98.4528L102.291 99.4373L102.087 99.0693L103.402 98.3339C103.321 98.2432 103.23 98.1755 103.129 98.1289C103.028 98.0829 102.918 98.0605 102.798 98.0605C102.556 98.0605 102.351 98.1506 102.184 98.3333C102.018 98.5141 101.935 98.739 101.935 99.0061C101.935 99.2712 102.018 99.4954 102.186 99.6775C102.353 99.8596 102.557 99.9516 102.797 99.9516C103.028 99.9516 103.22 99.8749 103.375 99.7229C103.531 99.5708 103.628 99.3613 103.666 99.0961L104.158 99.1709ZM104.762 100.088C104.762 99.997 104.793 99.9184 104.856 99.8545C104.918 99.7913 104.997 99.7587 105.091 99.7587C105.182 99.7587 105.26 99.7913 105.323 99.8545C105.385 99.9184 105.417 99.997 105.417 100.088C105.417 100.177 105.385 100.253 105.321 100.316C105.258 100.379 105.18 100.41 105.091 100.41C104.999 100.41 104.921 100.379 104.857 100.316C104.794 100.253 104.762 100.177 104.762 100.088Z" fill="#2B2A29"/>
<path d="M15.3414 74.5743H18.7632L23.7888 87.9137L28.7789 74.5743H32.1293L26.1412 90.4884C25.9037 91.0129 25.5828 91.4122 25.1789 91.6863C24.7749 91.9604 24.2879 92.0977 23.7176 92.0977C22.4344 92.0977 21.6146 91.4895 21.2583 90.2737L15.3414 74.5743ZM37.0836 83.5501L45.6022 78.8299C44.5331 77.7566 43.2023 77.2206 41.6103 77.2206C39.8757 77.2206 38.4975 77.8403 37.4758 79.0804C36.4539 80.3198 36.0025 81.7739 36.1213 83.4427C36.1925 84.9927 36.7272 86.3279 37.7253 87.4486C38.7233 88.5692 40.0658 89.1173 41.7528 89.0937C43.4875 89.0694 44.7884 88.6049 45.6558 87.699C46.5231 86.7931 47.123 85.4578 47.4557 83.6932L50.5923 84.1225C50.5448 85.3147 50.1765 86.5247 49.4874 87.7527C48.7982 88.98 47.7706 90.0175 46.4043 90.8634C45.038 91.7099 43.4163 92.145 41.539 92.1687C40.0182 92.1687 38.5866 91.7758 37.244 90.9886C35.9015 90.2022 34.8321 89.141 34.0362 87.8063C33.2402 86.4711 32.8421 85.0521 32.8421 83.5501C32.7708 80.5466 33.6501 78.2396 35.4797 76.6302C37.3094 75.0209 39.3529 74.2165 41.6103 74.2165C43.5587 74.2165 45.2043 74.6631 46.5468 75.5576C47.8894 76.4514 49.0359 77.8167 49.9864 79.6522L38.438 86.0896L37.0836 83.5501ZM53.8358 66.6706H56.9724V91.74H53.8358V66.6706ZM61.0357 74.5743H64.1726V84.9096C64.2435 86.149 64.6773 87.1444 65.4733 87.8958C66.2694 88.6465 67.2022 89.0458 68.271 89.0937C69.4594 89.0937 70.4452 88.6644 71.2297 87.8063C72.0136 86.9477 72.4417 85.9823 72.5126 84.9096V74.5743H75.6489V84.7665C75.6489 86.8882 74.9423 88.6586 73.5285 90.077C72.1146 91.4953 70.3621 92.1693 68.271 92.0977C66.2279 92.0262 64.5105 91.3522 63.1208 90.077C61.7307 88.8017 61.0357 86.8883 61.0357 84.3372V74.5743ZM82.7067 83.5501L91.225 78.8299C90.1562 77.7566 88.8254 77.2206 87.2333 77.2206C85.4987 77.2206 84.1206 77.8403 83.0984 79.0804C82.0768 80.3198 81.6257 81.7739 81.7439 83.4427C81.8155 84.9927 82.3502 86.3279 83.3482 87.4486C84.3461 88.5692 85.6884 89.1173 87.3757 89.0937C89.1103 89.0694 90.4111 88.6049 91.2787 87.699C92.1457 86.7931 92.7456 85.4578 93.0785 83.6932L96.2154 84.1225C96.1675 85.3147 95.7995 86.5247 95.1101 87.7527C94.4214 88.98 93.3934 90.0175 92.0268 90.8634C90.6609 91.7099 89.0394 92.145 87.1617 92.1687C85.6412 92.1687 84.2094 91.7758 82.8671 90.9886C81.5242 90.2022 80.4553 89.141 79.6592 87.8063C78.8632 86.4711 78.4651 85.0521 78.4651 83.5501C78.3936 80.5466 79.2727 78.2396 81.1025 76.6302C82.9323 75.0209 84.9761 74.2165 87.2333 74.2165C89.1819 74.2165 90.827 74.6631 92.17 75.5576C93.5123 76.4514 94.6591 77.8167 95.6091 79.6522L84.0612 86.0896L82.7067 83.5501Z" fill="#182755"/>
<path fill-rule="evenodd" clip-rule="evenodd" d="M96.262 67.8851C96.8319 67.8851 97.3884 68.0314 97.9327 68.3266C98.4751 68.6199 98.8994 69.0415 99.2022 69.5884C99.505 70.1366 99.6571 70.7077 99.6571 71.3006C99.6571 71.8891 99.5082 72.4558 99.2086 72.9975C98.9102 73.5412 98.4924 73.9623 97.9525 74.2619C97.4133 74.5628 96.8492 74.7129 96.262 74.7129C95.673 74.7129 95.1088 74.5628 94.5696 74.2619C94.0298 73.9623 93.61 73.5412 93.3104 72.9975C93.0107 72.4558 92.8599 71.8891 92.8599 71.3006C92.8599 70.7077 93.012 70.1366 93.3168 69.5884C93.6228 69.0415 94.047 68.6199 94.5894 68.3266C95.1338 68.0314 95.6902 67.8851 96.262 67.8851ZM96.262 68.4499C95.7835 68.4499 95.3177 68.5739 94.8661 68.8192C94.4144 69.0645 94.0604 69.4166 93.8055 69.874C93.5506 70.3308 93.4228 70.8061 93.4228 71.3006C93.4228 71.7932 93.5487 72.2641 93.7991 72.7151C94.0496 73.1656 94.4003 73.5176 94.8507 73.7693C95.3011 74.021 95.7714 74.1475 96.262 74.1475C96.7508 74.1475 97.221 74.021 97.6714 73.7693C98.1218 73.5176 98.472 73.1656 98.7211 72.7151C98.9703 72.2641 99.0949 71.7932 99.0949 71.3006C99.0949 70.8061 98.9671 70.3308 98.7134 69.874C98.4598 69.4166 98.1065 69.0645 97.6529 68.8192C97.1993 68.5739 96.7355 68.4499 96.262 68.4499ZM94.769 73.1841V69.5156H96.0263C96.4569 69.5156 96.7674 69.5495 96.9597 69.6178C97.1533 69.6855 97.3053 69.8025 97.421 69.9724C97.5347 70.1411 97.5916 70.3199 97.5916 70.5097C97.5916 70.7774 97.4964 71.0119 97.3041 71.2093C97.1137 71.4086 96.86 71.5198 96.5431 71.5447C96.6722 71.5984 96.777 71.6635 96.8536 71.7389C97.0012 71.8827 97.1808 72.1248 97.3948 72.466L97.8407 73.1841H97.1239L96.7981 72.6065C96.5431 72.151 96.3355 71.8654 96.179 71.7511C96.071 71.668 95.9145 71.6265 95.7068 71.6278H95.3593V73.1841H94.769ZM95.3593 71.1186H96.0761C96.4186 71.1186 96.6524 71.0674 96.777 70.9652C96.9009 70.8636 96.9642 70.7276 96.9642 70.5608C96.9642 70.4528 96.9335 70.3557 96.8735 70.2708C96.8134 70.1839 96.7303 70.1206 96.6243 70.0791C96.517 70.0376 96.3202 70.0158 96.0314 70.0158H95.3593V71.1186Z" fill="#182755"/>
<defs>
<radialGradient id="paint0_radial_65_44548" cx="0" cy="0" r="1" gradientUnits="userSpaceOnUse" gradientTransform="translate(71.3209 65.5378) rotate(180) scale(10.3556 5.87483)">
<stop stop-color="white"/>
<stop offset="1" stop-color="#0089C3"/>
</radialGradient>
<radialGradient id="paint1_radial_65_44548" cx="0" cy="0" r="1" gradientUnits="userSpaceOnUse" gradientTransform="translate(71.3144 59.799) rotate(180) scale(10.5415 6.33983)">
<stop stop-color="#E2F7FF"/>
<stop offset="0.631373" stop-color="#71C9E5"/>
<stop offset="0.85098" stop-color="#009CCC"/>
<stop offset="1" stop-color="#008ECC"/>
</radialGradient>
<radialGradient id="paint2_radial_65_44548" cx="0" cy="0" r="1" gradientUnits="userSpaceOnUse" gradientTransform="translate(71.2967 59.7926) rotate(-180) scale(159.217 52.942)">
<stop stop-color="#E2F7FF"/>
<stop offset="0.611765" stop-color="#71C9E5"/>
<stop offset="0.878431" stop-color="#009CCC"/>
<stop offset="1" stop-color="#0092CC"/>
</radialGradient>
<linearGradient id="paint3_linear_65_44548" x1="28.5524" y1="116.991" x2="37.1785" y2="-5.48434" gradientUnits="userSpaceOnUse">
<stop stop-color="#E2F7FF"/>
<stop offset="0.658824" stop-color="#CBE9F2"/>
<stop offset="1" stop-color="#B3DAE4"/>
</linearGradient>
<linearGradient id="paint4_linear_65_44548" x1="-0.0110624" y1="57.5116" x2="115" y2="57.5116" gradientUnits="userSpaceOnUse">
<stop stop-color="#E2F7FF"/>
<stop offset="0.2" stop-color="#D1F0FB"/>
<stop offset="0.301961" stop-color="#BFE8F6"/>
<stop offset="1" stop-color="#6EC8E4"/>
</linearGradient>
</defs>
</svg>
